Coordinates
version=1
nRows=21
nColumns=12
inDegrees=yes

Units are S.I. units (second, meters, Newtons, ...)
Angles are in degrees

endheader
time	SC_y	SC_z	SC_x	AC_y	AC_z	AC_x	GH_y	GH_z	GH_yy	EL_x	PS_y
       0.0              -17.55          32.13          32.38          53.18          -7.18         -6.722         -32.44          37.31         -121.7          69.11          115.5
   0.04289              -17.55          32.13          32.38          53.18          -7.18         -6.719         -32.42          37.32         -121.7          69.11          115.5
   0.08578              -17.56          32.12          32.38          53.18         -7.181         -6.715         -32.41          37.33         -121.7           69.1          115.4
    0.1287              -17.56          32.12          32.38          53.17         -7.181         -6.712         -32.39          37.34         -121.7           69.1          115.4
    0.1716              -17.56          32.11          32.38          53.17         -7.181         -6.708         -32.37          37.35         -121.7           69.1          115.4
    0.2145              -17.57           32.1          32.38          53.17         -7.182         -6.703         -32.35          37.36         -121.7           69.1          115.4
    0.2574              -17.58           32.1          32.38          53.16         -7.182         -6.699         -32.33          37.37         -121.7           69.1          115.4
    0.3002              -17.58          32.09          32.38          53.16         -7.183         -6.694         -32.31          37.38         -121.6          69.09          115.4
    0.3431              -17.59          32.08          32.39          53.16         -7.183         -6.689         -32.29          37.39         -121.6          69.09          115.4
     0.386              -17.59          32.08          32.39          53.15         -7.184         -6.684         -32.26           37.4         -121.6          69.09          115.4
    0.4289               -17.6          32.07          32.39          53.15         -7.185         -6.678         -32.24          37.42         -121.6          69.08          115.4
    0.4718              -17.61          32.06          32.39          53.15         -7.185         -6.672         -32.21          37.43         -121.6          69.08          115.4
    0.5147              -17.62          32.05          32.39          53.14         -7.186         -6.665         -32.18          37.45         -121.5          69.08          115.3
    0.5576              -17.63          32.04          32.39          53.14         -7.187         -6.658         -32.14          37.46         -121.5          69.07          115.3
    0.6005              -17.64          32.03           32.4          53.13         -7.188          -6.65         -32.11          37.48         -121.5          69.07          115.3
    0.6434              -17.65          32.02           32.4          53.12         -7.189         -6.641         -32.07           37.5         -121.5          69.06          115.3
    0.6863              -17.66           32.0           32.4          53.12          -7.19         -6.632         -32.03          37.52         -121.4          69.06          115.3
    0.7292              -17.67          31.99           32.4          53.11         -7.191         -6.622         -31.98          37.55         -121.4          69.05          115.3
    0.7721              -17.69          31.97          32.41           53.1         -7.192          -6.61         -31.93          37.57         -121.4          69.05          115.2
     0.815               -17.7          31.95          32.41          53.09         -7.193         -6.598         -31.87           37.6         -121.3          69.04          115.2
    0.8578              -17.72          31.94          32.41          53.08         -7.195         -6.585         -31.81          37.63         -121.3          69.03          115.2
